<?xml version="1.0" encoding="UTF-8" standalone="no"?>
<!-- Generator: Adobe Illustrator 19.0.0, SVG Export Plug-In . SVG Version: 6.00 Build 0)  -->

<svg
   xmlns:dc="http://purl.org/dc/elements/1.1/"
   xmlns:cc="http://creativecommons.org/ns#"
   xmlns:rdf="http://www.w3.org/1999/02/22-rdf-syntax-ns#"
   xmlns:svg="http://www.w3.org/2000/svg"
   xmlns="http://www.w3.org/2000/svg"
   xmlns:sodipodi="http://sodipodi.sourceforge.net/DTD/sodipodi-0.dtd"
   xmlns:inkscape="http://www.inkscape.org/namespaces/inkscape"
   version="1.1"
   id="Capa_1"
   x="0px"
   y="0px"
   viewBox="0 0 47.971 47.971"
   style="enable-background:new 0 0 47.971 47.971;"
   xml:space="preserve"
   sodipodi:docname="close-darkblue.svg"
   inkscape:version="0.92.3 (2405546, 2018-03-11)"><metadata
   id="metadata41"><rdf:RDF><cc:Work
       rdf:about=""><dc:format>image/svg+xml</dc:format><dc:type
         rdf:resource="http://purl.org/dc/dcmitype/StillImage" /></cc:Work></rdf:RDF></metadata><defs
   id="defs39" /><sodipodi:namedview
   pagecolor="#ffffff"
   bordercolor="#666666"
   borderopacity="1"
   objecttolerance="10"
   gridtolerance="10"
   guidetolerance="10"
   inkscape:pageopacity="0"
   inkscape:pageshadow="2"
   inkscape:window-width="1920"
   inkscape:window-height="1027"
   id="namedview37"
   showgrid="false"
   inkscape:zoom="13.91484"
   inkscape:cx="2.1743735"
   inkscape:cy="18.065372"
   inkscape:window-x="0"
   inkscape:window-y="25"
   inkscape:window-maximized="1"
   inkscape:current-layer="g4" />
<g
   id="g4">

<path
   style="opacity:1;fill:#05204A;fill-opacity:1;stroke:none;stroke-width:0.57492578;stroke-linecap:butt;stroke-linejoin:miter;stroke-miterlimit:4;stroke-dasharray:none;stroke-opacity:1;paint-order:markers stroke fill"
   d="M 2.3215368,47.829385 C 0.49126439,47.336002 -0.40083221,45.330693 0.44465749,43.610421 0.58483309,43.325214 2.6062551,41.264573 10.244227,33.620723 l 9.622965,-9.630368 -9.524973,-9.521846 C 5.1034851,9.231494 0.72081629,4.8025075 0.60295559,4.6263165 0.32888249,4.2166023 0.10440119,3.490251 0.10549369,3.0166857 0.10962949,1.2239923 1.7676243,-0.21007027 3.5035462,0.07758133 4.5616924,0.25292183 3.8881342,-0.36851337 14.441852,10.169433 l 9.630006,9.615614 9.66594,-9.653962 c 8.668015,-8.6572756 9.705891,-9.67057677 10.052913,-9.81488847 0.613198,-0.2550032 1.141959,-0.3281718 1.701512,-0.2354508 1.981393,0.3283274 3.061621,2.42982307 2.183271,4.24737537 -0.212898,0.4405483 -0.921043,1.1671242 -9.813399,10.0688239 l -9.583942,9.594013 9.616937,9.630067 c 9.095115,9.107532 9.627669,9.654692 9.814711,10.083875 0.37961,0.871044 0.372226,1.758299 -0.02128,2.55763 -0.569213,1.156236 -1.921824,1.86064 -3.121445,1.625566 C 43.533651,47.68559 44.181191,48.28581 33.701504,37.816542 l -9.63037,-9.620797 -9.378113,9.382421 c -5.157962,5.160331 -9.5642907,9.523818 -9.7918418,9.696636 -0.7833919,0.594963 -1.6993517,0.79188 -2.5796394,0.554583 z"
   id="path848"
   inkscape:connector-curvature="0" /></g>
<g
   id="g6">
</g>
<g
   id="g8">
</g>
<g
   id="g10">
</g>
<g
   id="g12">
</g>
<g
   id="g14">
</g>
<g
   id="g16">
</g>
<g
   id="g18">
</g>
<g
   id="g20">
</g>
<g
   id="g22">
</g>
<g
   id="g24">
</g>
<g
   id="g26">
</g>
<g
   id="g28">
</g>
<g
   id="g30">
</g>
<g
   id="g32">
</g>
<g
   id="g34">
</g>
</svg>
